<svg width="130" height="130" viewBox="0 0 130 130" fill="none" xmlns="http://www.w3.org/2000/svg">
<circle cx="65" cy="65" r="65" fill="white"/>
<path d="M82 92H74V86H80.5L88 82.5L92 78L94.5 72V64.5L94 62.5L89.5 54.5L85.5 51.5L82.5 50.5L82 48L79.5 43.5L75 38L69 35.5H59.5L56.5 37.5L51 41.5L48.5 45.5L47 48L47.5 50L46 51.5L41 54.5L36.5 60.5L35 63.5L35.5 72L36.5 76.5L41 81.5L48 86H62V75L48.5 60.5L52 57L62 66V47.5H68V73L77.5 63L82 67.5L68 81V100.5H62V92H48L42.5 89.5L36.5 85.5L32.5 80.5L30.5 76.5L29.5 72V62.5L32 56.5L34 53L36.5 51L39.5 48.5L42.5 46.5L43.5 42.5L45.5 39.5L48.5 35.5L52 32.5L56.5 30.5L59.5 29H70.5L78 33L83.5 37.5L86.5 42.5L88 46.5L92 49.5L95.5 52.5L97.5 55.5L99 59L100.5 62.5V73L99 76.5L97.5 81L94.5 84.5L90 88L85.5 90.5L82 92Z" fill="black"/>
</svg>
